# xmcd
#
# Track frame offsets: 
#        150
#        14022
#        27356
#        56467
#        76358
#        96237
#        110207
#        121314
#        134300
#        149638
#        161612
#        181225
#        188866
#        202609
#        211889
#        230668
#        249522
#        259928
#        276476
#        289885
#        307221
#        322009
#        333642
#        342778
#
# Disc length: 4772 seconds
#
# Revision: 1
# Processed by: cddbd v1.5.2PL0 Copyright (c) Steve Scherf et al.
# Submitted via: ExactAudioCopy v1.0b3
#
DISCID=7a12a218
DTITLE=CHET ATKINS - The Best Of...CD-1
DYEAR=2005
DGENRE=Country
TTITLE0=In The Jailhouse Now (with Suzy Bogguss)
TTITLE1=Ode To Mel Bay (with Tommy Emmanuel)
TTITLE2=There'll Be Some Changes Made (with Mark Knopfler)
TTITLE3=Sneakin' Around (with Jerry Reed)
TTITLE4=Read My Licks (with Steve Wariner)
TTITLE5=When She Smiled At Him (Suzy Bogguss)
TTITLE6=Daar's 'n Wind Wat Waai
TTITLE7=Give My Love To Nell (with Les Paul) 
TTITLE8=Yakety Axe (with Mark Knopfler)
TTITLE9=The Claw (with Jerry Reed)
TTITLE10=Forget About It (with Suzy Bogguss)
TTITLE11=Swannee River (with Jim Atkins)
TTITLE12=Road To Gandaghi,Waltzing Matilda (withTommy Emmanuel)
TTITLE13=It's Now Or Never
TTITLE14=Cajun Stripper (with Jerry Reed)
TTITLE15=Wives Don't Like Old Girlfriends (with Suzy Bogguss)
TTITLE16=Summer Sunday
TTITLE17=The Day Finger Pickers Took Over The World (withTommy Emmanue
TTITLE17=l)
TTITLE18=I'll See You In My Dreams (with Mark Knopfler)
TTITLE19=Sorry Seems To Be The Hardest Word (with Suzy Bogguss)
TTITLE20=Even Tho' (with Jim Atkins)
TTITLE21=Meditation(with Les Paul)
TTITLE22=El Relicario
TTITLE23=Two Shades of Blue (with Suzy Bogguss)
EXTD=
EXTT0=
EXTT1=
EXTT2=
EXTT3=
EXTT4=
EXTT5=
EXTT6=
EXTT7=
EXTT8=
EXTT9=
EXTT10=
EXTT11=
EXTT12=
EXTT13=
EXTT14=
EXTT15=
EXTT16=
EXTT17=
EXTT18=
EXTT19=
EXTT20=
EXTT21=
EXTT22=
EXTT23=
PLAYORDER=
